/vscmnt/brussel_pixiu_data/_data_brussel/112/vsc11236/PredSimResults/SUBJ09mtu3D/worker4.mot
version=1
nRows=10
nColumns=50
inDegrees=yes
endheader
                time	         pelvis_tilt	         pelvis_list	     pelvis_rotation	           pelvis_tx	           pelvis_ty	           pelvis_tz	       hip_flexion_r	     hip_adduction_r	      hip_rotation_r	        knee_angle_r	       ankle_angle_r	         mtp_angle_r	       hip_flexion_l	     hip_adduction_l	      hip_rotation_l	        knee_angle_l	       ankle_angle_l	         mtp_angle_l	    lumbar_extension	      lumbar_bending	     lumbar_rotation	 ercspn_r/activation	 intobl_r/activation	 extobl_r/activation	    abd_r/activation	    add_r/activation	hamstrings_r/activation	bifemsh_r/activation	glut_max_r/activation	iliopsoas_r/activation	rect_fem_r/activation	  vasti_r/activation	gastroc_r/activation	 soleus_r/activation	tib_ant_r/activation	 ercspn_l/activation	 intobl_l/activation	 extobl_l/activation	    abd_l/activation	    add_l/activation	hamstrings_l/activation	bifemsh_l/activation	glut_max_l/activation	iliopsoas_l/activation	rect_fem_l/activation	  vasti_l/activation	gastroc_l/activation	 soleus_l/activation	tib_ant_l/activation	
          1.81602080	         -2.75737393	          2.74082337	         -8.33170802	          2.25186579	          0.99293294	          0.00563566	        -13.44854667	         -4.28304711	         -3.74541801	        -11.75536209	          6.92540954	         34.01423149	         27.86329227	          0.09055809	         -8.43717432	         -7.27193538	          3.03789107	          0.22412369	        -14.24576168	         -1.25341166	          4.40626322	          0.01000000	          0.00999999	          0.01000000	          0.02864906	          0.00999999	          0.01013445	          0.19799115	          0.01503012	          0.03274954	          0.01000002	          0.01000000	          0.17784571	          0.29488101	          0.01201779	          0.04376553	          0.18398443	          0.03620554	          0.01201781	          0.20811559	          0.04718248	          0.03012704	          0.01434578	          0.12096662	          0.04351116	          0.03090866	          0.01483584	          0.01000021	          0.29644634	
          1.82812760	         -2.79593293	          2.71771340	         -8.29553626	          2.27083740	          0.99104918	          0.00496487	        -14.17238488	         -4.43814145	         -4.22062924	        -12.27441810	          5.70557029	         35.73401104	         27.67017289	          0.24858852	         -8.57591582	         -8.35827641	          2.60237577	          0.24523140	        -13.82167632	         -1.50505017	          4.54435346	          0.03754762	          0.01000001	          0.01000000	          0.02383885	          0.03432604	          0.02113435	          0.16474826	          0.01250655	          0.09147801	          0.01000003	          0.01000002	          0.14798525	          0.26947094	          0.00999999	          0.03641726	          0.15309326	          0.03012660	          0.01000001	          0.25069591	          0.03926050	          0.02506869	          0.11261495	          0.10065620	          0.03620559	          0.03519915	          0.01234489	          0.01297382	          0.31113173	
          1.84023441	         -2.81261134	          2.70613823	         -8.22735628	          2.29030530	          0.98926728	          0.00426292	        -14.77476911	         -4.61644845	         -4.72072396	        -13.09341051	          4.39195060	         37.42512849	         27.34571832	          0.37606618	         -8.56298854	         -9.74952794	          2.35924666	          0.20358439	        -13.35702987	         -1.77513694	          4.66550235	          0.03124335	          0.00999999	          0.01000001	          0.01983628	          0.02856266	          0.01758604	          0.13708687	          0.01040669	          0.09824796	          0.01000002	          0.01000001	          0.12313838	          0.23927661	          0.00999999	          0.03030278	          0.12738875	          0.02506831	          0.10526200	          0.23321948	          0.05333785	          0.02085965	          0.09429914	          0.08375593	          0.03012664	          0.02928920	          0.01201857	          0.01201779	          0.33246077	
          1.85234121	         -2.81283466	          2.68765826	         -8.11744930	          2.30994823	          0.98777797	          0.00347719	        -15.15121190	         -4.80515638	         -5.24241745	        -14.35259029	          2.96785436	         39.03204372	         26.96957635	          0.49312019	         -8.57931211	        -11.10172885	          2.00037711	          0.20020756	        -12.88893086	         -2.03767681	          4.75973400	          0.04260991	          0.00999999	          0.01000000	          0.01650575	          0.02376697	          0.01463389	          0.11406986	          0.00999999	          0.11982794	          0.01000001	          0.01000002	          0.10246332	          0.19910183	          0.00999999	          0.02521506	          0.10600005	          0.02085932	          0.16698409	          0.24448699	          0.05195593	          0.01735730	          0.10558294	          0.06969322	          0.02506835	          0.02437169	          0.01000065	          0.01000000	          0.36113386	
          1.86444802	         -2.79794406	          2.66769944	         -7.96868253	          2.32944840	          0.98674816	          0.00260420	        -15.19656290	         -5.01991998	         -5.77389014	        -16.19847180	          1.45440196	         40.42014861	         26.68774122	          0.59453048	         -8.64329855	        -12.62355975	          1.63192795	          0.16887652	        -12.45264095	         -2.30073651	          4.82286834	          0.06876014	          0.01000000	          0.01000000	          0.01373442	          0.06998052	          0.01732149	          0.09491743	          0.00999999	          0.15792462	          0.01000000	          0.01000000	          0.08525963	          0.16567244	          0.00999999	          0.02543504	          0.08820254	          0.01735702	          0.21236538	          0.26818473	          0.05605004	          0.01444300	          0.12574129	          0.05799166	          0.02085935	          0.14644033	          0.01000001	          0.01000000	          0.37955255	
          1.87655482	         -2.77093367	          2.64610764	         -7.78407866	          2.34858601	          0.98637262	          0.00167107	        -14.81680306	         -5.26961072	         -6.33663017	        -18.75313543	         -0.14756381	         41.37517994	         26.46313923	          0.68688558	         -8.72809376	        -14.27997712	          1.57881567	          0.12494175	        -12.06987822	         -2.56729868	          4.85314544	          0.09102982	          0.01000000	          0.01000000	          0.01142840	          0.11223502	          0.01441357	          0.07898072	          0.00999999	          0.15091458	          0.01000000	          0.00999999	          0.07094445	          0.13785587	          0.00999999	          0.02506822	          0.07339324	          0.01444276	          0.22732500	          0.27423793	          0.05178775	          0.01201802	          0.17299647	          0.04825480	          0.01735704	          0.21556853	          0.01000001	          0.00999999	          0.37299340	
          1.88866163	         -2.73446408	          2.61330333	         -7.56262602	          2.36721991	          0.98678542	          0.00070746	        -13.95772081	         -5.56135976	         -6.96241892	        -22.09749960	         -1.74151852	         41.44038408	         26.22524994	          0.77374175	         -8.79836186	        -15.94991589	          1.94579903	          0.09970730	        -11.75405155	         -2.82890590	          4.84778549	          0.10276253	          0.00999999	          0.01000000	          0.00999999	          0.14765997	          0.01654111	          0.06571980	          0.00999999	          0.12557588	          0.01000000	          0.00999999	          0.05903281	          0.11470973	          0.00999999	          0.02085934	          0.06107044	          0.01201780	          0.22018812	          0.26901692	          0.05445261	          0.01000022	          0.20175740	          0.04015277	          0.01444278	          0.25728296	          0.01000001	          0.01000000	          0.32537374	
          1.90076843	         -2.69090527	          2.55354988	         -7.30351245	          2.38530895	          0.98800635	         -0.00025816	        -12.62653324	         -5.89583291	         -7.62990689	        -26.15962373	         -3.50054346	         40.59569293	         25.88736108	          0.86124695	         -8.78987418	        -17.45070570	          2.62889088	          0.15693588	        -11.50706718	         -3.06909848	          4.80642858	          0.09259306	          0.00999999	          0.01000001	          0.00999999	          0.18550356	          0.01868271	          0.05468559	          0.00999999	          0.10449157	          0.00999999	          0.00999999	          0.04912114	          0.09544985	          0.01000000	          0.01735704	          0.05081665	          0.01000000	          0.21038918	          0.25746739	          0.05771136	          0.01000004	          0.20604317	          0.03341108	          0.01201783	          0.30299877	          0.01000001	          0.00999999	          0.27074316	
          1.91287524	         -2.64259410	          2.44909269	         -7.00303407	          2.40284533	          0.98997202	         -0.00119641	        -10.88051537	         -6.26037519	         -8.29523070	        -30.77020681	         -5.49824860	         38.69735986	         25.36463568	          0.94825091	         -8.66667497	        -18.59153330	          3.40976416	          0.34795351	        -11.32810068	         -3.26889510	          4.72610273	          0.09053453	          0.03510674	          0.04776900	          0.00999999	          0.17247580	          0.01983886	          0.04550384	          0.00999999	          0.08694733	          0.00999999	          0.00999999	          0.04087365	          0.07942372	          0.03902317	          0.01444278	          0.04228449	          0.01000000	          0.19009576	          0.21971177	          0.05952013	          0.01000008	          0.17144832	          0.02780133	          0.01000002	          0.30964176	          0.01000002	          0.01000000	          0.22528512	
          1.92498204	         -2.59074406	          2.29764317	         -6.66832566	          2.41978235	          0.99249363	         -0.00210148	         -8.80505986	         -6.63923222	         -8.85932014	        -35.77668703	         -7.34271967	         35.20956935	         24.67350234	          1.02324891	         -8.44551566	        -19.38401942	          4.21020612	          0.68572872	        -11.22183715	         -3.42016240	          4.61141366	          0.12615117	          0.08725727	          0.09757942	          0.01000000	          0.14351694	          0.01650799	          0.03786371	          0.01000000	          0.07234879	          0.01000002	          0.00999999	          0.03401093	          0.06608840	          0.15386895	          0.01201783	          0.03518488	          0.00999999	          0.15817850	          0.19291080	          0.05603161	          0.01000004	          0.14266198	          0.02313346	          0.01000000	          0.31909133	          0.01000001	          0.01000000	          0.18745952	
